<svg xmlns="http://www.w3.org/2000/svg" height="current" viewBox="0 96 960 960" width="current" fill='current'><path d="M258.461 616q-16.5 0-28.25-11.75T218.461 576q0-16.5 11.75-28.25t28.25-11.75q16.501 0 28.251 11.75t11.75 28.25q0 16.5-11.75 28.25T258.461 616ZM480 616q-16.5 0-28.25-11.75T440 576q0-16.5 11.75-28.25T480 536q16.5 0 28.25 11.75T520 576q0 16.5-11.75 28.25T480 616Zm221.539 0q-16.501 0-28.251-11.75T661.538 576q0-16.5 11.75-28.25T701.539 536q16.5 0 28.25 11.75t11.75 28.25q0 16.5-11.75 28.25T701.539 616Z"/></svg>