<svg xmlns="http://www.w3.org/2000/svg" height="current" viewBox="0 96 960 960" width="current" fill='current'><path d="M313.154 742.846h50.154l234.923-234.923-50.154-50.154-234.923 234.923v50.154Zm309.077-258.923 21.846-21.846q8.154-8.014 8.154-18.699 0-10.686-8.154-18.839l-12.616-12.616q-8.014-8.154-18.699-8.154-10.685 0-18.839 8.154l-23.385 23.385 51.693 48.615ZM480.134 936q-74.673 0-140.41-28.339-65.737-28.34-114.365-76.922-48.627-48.582-76.993-114.257Q120 650.806 120 576.134q0-74.673 28.339-140.41 28.34-65.737 76.922-114.365 48.582-48.627 114.257-76.993Q405.194 216 479.866 216q74.673 0 140.41 28.339 65.737 28.34 114.365 76.922 48.627 48.582 76.993 114.257Q840 501.194 840 575.866q0 74.673-28.339 140.41-28.34 65.737-76.922 114.365-48.582 48.627-114.257 76.993Q554.806 936 480.134 936Z"/></svg>