<svg xmlns="http://www.w3.org/2000/svg" height="current" viewBox="0 96 960 960" width="current"><path d="M224.615 1004Q197 1004 178.5 985.5 160 967 160 939.385v-510.77Q160 401 178.5 382.5 197 364 224.615 364h326.231l-40 40H224.615q-9.23 0-16.923 7.692Q200 419.385 200 428.615v510.77q0 9.23 7.692 16.923Q215.385 964 224.615 964h510.77q9.23 0 16.923-7.692Q760 948.615 760 939.385V652.923l40-40v326.462Q800 967 781.5 985.5 763 1004 735.385 1004h-510.77ZM480 684Zm195.461-309.308L704.769 403 440 667v57h56l266.538-265 27.77 27.539L513.846 764H400V650.154l275.461-275.462Zm114.847 111.847L675.461 374.692l83.077-83.077Q777.154 273 804.5 273q27.346 0 45.731 19.384L872.385 314q18.385 19.154 18.385 45.615 0 26.462-19.154 45.616l-81.308 81.308Z"/></svg>