<svg xmlns="http://www.w3.org/2000/svg" height="current" viewBox="0 96 960 960" width="current"><path d="M480.181 702.154q60.973 0 103.473-42.681t42.5-103.654q0-60.973-42.681-103.473t-103.654-42.5q-60.973 0-103.473 42.681t-42.5 103.654q0 60.973 42.681 103.473t103.654 42.5ZM480 664q-45 0-76.5-31.5T372 556q0-45 31.5-76.5T480 448q45 0 76.5 31.5T588 556q0 45-31.5 76.5T480 664Zm.11 152q-129.956 0-236.879-70.731Q136.307 674.539 83.077 556q53.23-118.539 160.044-189.269Q349.934 296 479.89 296q129.956 0 236.879 70.731Q823.693 437.461 876.923 556q-53.23 118.539-160.044 189.269Q610.066 816 480.11 816Z"/></svg>