<svg xmlns="http://www.w3.org/2000/svg" height="current" viewBox="0 96 960 960" width="current"><path d="M720.091 956q-41.63 0-70.86-29.167Q620 897.667 620 856q0-7.979 1.385-16.528 1.384-8.549 4.153-16.087L315.846 640.923q-14.692 16.539-34.154 25.808Q262.231 676 240 676q-41.667 0-70.833-29.14Q140 617.719 140 576.09t29.167-70.859Q198.333 476 240 476q22.231 0 41.692 9.269 19.462 9.269 34.154 25.808l309.692-182.462q-2.769-7.538-4.153-16.087Q620 303.979 620 296q0-41.667 29.14-70.833Q678.281 196 719.909 196q41.63 0 70.86 29.14Q820 254.281 820 295.909q0 41.63-29.167 70.86Q761.667 396 720 396q-22.231 0-41.692-9.269-19.462-9.269-34.154-25.808L334.462 543.385q2.769 7.538 4.154 16.033Q340 567.912 340 575.841q0 7.928-1.384 16.582-1.385 8.654-4.154 16.192l309.692 182.462q14.692-16.539 34.154-25.808Q697.769 756 720 756q41.667 0 70.833 29.14Q820 814.281 820 855.909q0 41.63-29.14 70.86Q761.719 956 720.091 956ZM720 356q24.692 0 42.346-17.654Q780 320.692 780 296q0-24.692-17.654-42.346Q744.692 236 720 236q-24.692 0-42.346 17.654Q660 271.308 660 296q0 24.692 17.654 42.346Q695.308 356 720 356ZM240 636q24.692 0 42.346-17.654Q300 600.692 300 576q0-24.692-17.654-42.346Q264.692 516 240 516q-24.692 0-42.346 17.654Q180 551.308 180 576q0 24.692 17.654 42.346Q215.308 636 240 636Zm480 280q24.692 0 42.346-17.654Q780 880.692 780 856q0-24.692-17.654-42.346Q744.692 796 720 796q-24.692 0-42.346 17.654Q660 831.308 660 856q0 24.692 17.654 42.346Q695.308 916 720 916Zm0-620ZM240 576Zm480 280Z"/></svg>